<svg width="421" height="127" viewBox="0 0 421 127" fill="none" xmlns="http://www.w3.org/2000/svg">
<path d="M161.506 107.618C148.948 117.21 140.595 117.283 128.368 107.727C123.529 103.945 119.026 99.7232 114.474 95.5875C111.699 93.0658 109.141 92.8207 106.081 95.192C99.5077 100.284 92.9538 105.43 86.0896 110.111C77.0414 116.281 69.7326 114.405 65.0604 104.525C59.1821 92.0938 59.954 79.1878 64.7661 66.7325C67.9964 58.3714 75.6017 57.8641 81.0072 64.9931C81.9991 66.3013 82.864 67.7842 83.4392 69.3171C87.131 79.1555 88.8697 79.7836 97.9288 74.3559C99.0702 73.6721 100.265 73.0764 101.393 72.3713C108.847 67.7087 115.739 68.0859 122.231 74.3408C126.301 78.2623 130.527 82.0402 134.877 85.6488C140.758 90.5277 144.257 90.7842 149.671 85.3153C153.416 81.5325 155.709 76.349 158.938 72.0047C160.813 69.482 162.86 66.2653 165.524 65.3224C171.044 63.3691 176.487 67.8278 175.982 73.8818C174.928 86.5052 172.041 98.571 161.506 107.618Z" fill="#3AB688"/>
<path d="M420.505 105.659C421.047 111.308 418.106 114.463 413.701 116.44C408.811 118.634 403.903 117.794 400.226 114.252C396.571 110.732 393.396 106.541 390.727 102.203C384.752 92.4943 384.923 92.4049 376.947 100.719C373.841 103.956 370.711 107.193 367.355 110.161C363.489 113.578 359.107 115.194 354.109 112.37C349.895 109.989 347.5 104.556 348.728 98.9489C352.851 80.1216 357.262 61.3568 361.338 42.5196C362.847 35.5458 363.641 28.4202 364.937 21.3964C365.81 16.6617 367.41 12.1511 372.916 11.1001C378.37 10.0588 381.563 13.6528 384.344 17.5507C387.599 22.1113 388.799 27.2188 387.477 32.7078C384.987 43.0407 382.344 53.3366 379.792 63.6548C378.382 69.3552 378.992 70.5275 384.782 70.0102C394.235 69.1656 400.038 73.7129 404.717 81.2648C408.981 88.1461 413.919 94.6083 418.485 101.306C419.307 102.511 419.769 103.96 420.505 105.659Z" fill="#3AB688"/>
<path d="M14.8429 20.9405C24.4191 10.9947 35.7071 4.55239 48.4443 0.479334C53.4933 -1.13517 61.1698 1.49331 63.9782 5.89736C66.3577 9.62887 64.831 12.9435 59.6645 15.7618C50.6209 20.6952 41.4703 25.4645 32.6938 30.8402C28.825 33.2099 25.2014 36.4707 22.463 40.0824C18.1256 45.803 19.0953 49.9893 24.1428 55.0578C29.7641 60.7025 35.776 66.1203 40.4934 72.472C53.6004 90.12 49.6417 112.284 31.933 122.656C26.2962 125.958 20.2245 127.544 13.8529 124.468C9.34335 122.291 7.65061 118.696 8.75512 113.831C9.95454 108.549 12.7247 104.508 17.5767 101.774C27.3722 96.2566 29.1324 89.9133 22.9408 80.5107C19.7746 75.7024 15.8488 71.2465 11.6398 67.2995C-2.90254 53.6619 -3.7736 43.6654 8.77504 28.0388C10.6493 25.7048 12.6485 23.4709 14.8429 20.9405Z" fill="#3AB688"/>
<path d="M242.156 42.0523C241.793 36.9563 241.204 32.313 241.22 27.6717C241.232 23.8923 242.404 20.4062 246.601 18.9875C250.789 17.5722 254.112 19.0943 256.935 22.0684C262.831 28.2812 265.262 35.9387 265.967 44.2761C266.065 45.4361 266.045 46.606 266.082 47.7713C266.45 59.3247 266.496 59.2059 277.236 63.3697C281.345 64.963 285.191 67.2373 289.563 69.4023C285.384 75.5054 280.009 78.1382 274.034 79.9027C266.136 82.2348 265.605 83.4121 265.688 91.5344C265.732 95.9374 265.064 100.488 263.859 104.728C262.36 110.003 258.657 111.911 253.541 111.101C248.574 110.314 245.31 106.611 245.321 101.38C245.329 97.5599 245.984 93.7301 245.844 89.9233C245.636 84.2887 243.404 82.7828 237.76 83.2673C232.182 83.7461 226.388 84.8423 221.043 83.8181C217.319 83.1045 213.064 79.9638 211.044 76.6789C207.275 70.551 212.366 63.2542 220.411 62.2533C224.536 61.74 228.709 61.6334 232.855 61.2741C241.316 60.5409 243.317 58.3353 242.99 49.9439C242.893 47.4579 242.466 44.9848 242.156 42.0523Z" fill="#3AB688"/>
<path d="M326.527 93.7136C330.092 92.6143 333.229 91.4077 336.478 90.7795C338.745 90.3411 341.166 90.695 343.88 90.695C338.473 107.09 319.18 116.466 304.194 110.928C291.249 106.145 287.371 91.2338 296.03 79.0332C301.15 71.82 308.263 67.3828 316.792 65.2555C318.361 64.8641 320.353 64.5068 321.675 65.1339C324.366 66.4096 327.732 67.877 328.882 70.2175C329.646 71.7739 327.616 75.5361 325.843 77.325C322.591 80.6044 318.594 83.1416 314.928 86.0142C312.591 87.8457 310.493 89.9636 312.125 93.1806C313.794 96.4711 316.697 96.539 319.874 95.5022C321.925 94.8327 324.052 94.395 326.527 93.7136Z" fill="#3AB688"/>
<path d="M188.344 107.658C187.195 104.013 185.73 100.747 185.376 97.3644C184.59 89.8662 190.07 85.4184 197.337 87.2136C204.672 89.0254 210.866 101.314 207.074 107.82C205.354 110.772 201.873 113.767 198.665 114.529C194.052 115.626 190.844 111.89 188.344 107.658Z" fill="#3AB688"/>
<path d="M205.096 52.0522C202.467 56.0549 199.472 58.8808 194.634 57.5628C190.024 56.3067 186.459 53.5811 185.648 48.589C184.897 43.9594 187.324 40.5609 191.04 38.1711C195.105 35.5574 198.993 36.5658 202.53 39.4291C206.669 42.7799 207.962 46.822 205.096 52.0522Z" fill="#3AB688"/>
</svg>
